<svg xmlns="http://www.w3.org/2000/svg" xmlns:xlink="http://www.w3.org/1999/xlink" width="140" zoomAndPan="magnify" viewBox="0 0 104.88 34.499999" height="46" preserveAspectRatio="xMidYMid meet" version="1.0"><defs><g/><clipPath id="5043d44177"><path d="M 4 2.140625 L 19 2.140625 L 19 31.710938 L 4 31.710938 Z M 4 2.140625 " clip-rule="nonzero"/></clipPath><clipPath id="b0c58f0cf3"><path d="M 19 8 L 34 8 L 34 31.710938 L 19 31.710938 Z M 19 8 " clip-rule="nonzero"/></clipPath><clipPath id="df7f35385c"><path d="M 15 2.140625 L 34 2.140625 L 34 26 L 15 26 Z M 15 2.140625 " clip-rule="nonzero"/></clipPath></defs><g fill="#302f2f" fill-opacity="1"><g transform="translate(35.029476, 22.565916)"><g><path d="M 0.421875 -12.8125 L 9.6875 -12.8125 L 9.6875 -10.328125 L 6.421875 -10.328125 L 6.421875 0 L 3.6875 0 L 3.6875 -10.328125 L 0.421875 -10.328125 Z M 0.421875 -12.8125 "/></g></g></g><g fill="#302f2f" fill-opacity="1"><g transform="translate(45.420678, 22.565916)"><g><path d="M 12.078125 -4.703125 C 11.765625 -4.347656 11.429688 -4 11.078125 -3.65625 C 10.734375 -3.3125 10.382812 -2.984375 10.03125 -2.671875 L 12.453125 0 L 9.375 0 L 8.28125 -1.1875 C 7.71875 -0.769531 7.117188 -0.40625 6.484375 -0.09375 C 5.847656 0.21875 5.171875 0.375 4.453125 0.375 C 3.992188 0.375 3.546875 0.296875 3.109375 0.140625 C 2.671875 -0.00390625 2.28125 -0.21875 1.9375 -0.5 C 1.59375 -0.789062 1.316406 -1.148438 1.109375 -1.578125 C 0.910156 -2.003906 0.8125 -2.503906 0.8125 -3.078125 C 0.8125 -3.835938 1.023438 -4.539062 1.453125 -5.1875 C 1.890625 -5.84375 2.4375 -6.429688 3.09375 -6.953125 L 1.015625 -9.328125 C 1.015625 -9.921875 1.128906 -10.453125 1.359375 -10.921875 C 1.585938 -11.390625 1.882812 -11.785156 2.25 -12.109375 C 2.625 -12.429688 3.050781 -12.679688 3.53125 -12.859375 C 4.007812 -13.035156 4.488281 -13.125 4.96875 -13.125 C 5.425781 -13.125 5.867188 -13.03125 6.296875 -12.84375 C 6.734375 -12.65625 7.117188 -12.398438 7.453125 -12.078125 C 7.785156 -11.765625 8.050781 -11.398438 8.25 -10.984375 C 8.457031 -10.566406 8.5625 -10.128906 8.5625 -9.671875 C 8.5625 -9.316406 8.503906 -8.992188 8.390625 -8.703125 C 8.273438 -8.421875 8.125 -8.15625 7.9375 -7.90625 C 7.757812 -7.65625 7.539062 -7.421875 7.28125 -7.203125 C 7.03125 -6.992188 6.765625 -6.789062 6.484375 -6.59375 L 8.53125 -4.375 C 8.664062 -4.46875 8.789062 -4.585938 8.90625 -4.734375 C 9.03125 -4.878906 9.160156 -5.019531 9.296875 -5.15625 L 10.4375 -6.328125 Z M 4.296875 -1.796875 C 4.609375 -1.796875 4.910156 -1.851562 5.203125 -1.96875 C 5.503906 -2.082031 5.769531 -2.207031 6 -2.34375 C 6.269531 -2.5 6.519531 -2.6875 6.75 -2.90625 C 6.382812 -3.320312 6.019531 -3.710938 5.65625 -4.078125 C 5.289062 -4.453125 4.9375 -4.847656 4.59375 -5.265625 C 4.25 -4.992188 3.941406 -4.703125 3.671875 -4.390625 C 3.546875 -4.253906 3.40625 -4.082031 3.25 -3.875 C 3.101562 -3.675781 3.03125 -3.351562 3.03125 -2.90625 C 3.03125 -2.8125 3.054688 -2.695312 3.109375 -2.5625 C 3.171875 -2.4375 3.25 -2.316406 3.34375 -2.203125 C 3.445312 -2.085938 3.578125 -1.988281 3.734375 -1.90625 C 3.898438 -1.832031 4.085938 -1.796875 4.296875 -1.796875 Z M 4.8125 -10.90625 C 4.519531 -10.90625 4.289062 -10.84375 4.125 -10.71875 C 3.957031 -10.601562 3.828125 -10.476562 3.734375 -10.34375 C 3.640625 -10.175781 3.582031 -9.988281 3.5625 -9.78125 L 4.96875 -8.3125 C 5.25 -8.507812 5.46875 -8.679688 5.625 -8.828125 C 5.789062 -8.984375 5.910156 -9.113281 5.984375 -9.21875 C 6.066406 -9.320312 6.117188 -9.421875 6.140625 -9.515625 C 6.171875 -9.609375 6.1875 -9.691406 6.1875 -9.765625 C 6.1875 -10.097656 6.039062 -10.367188 5.75 -10.578125 C 5.457031 -10.796875 5.144531 -10.90625 4.8125 -10.90625 Z M 4.8125 -10.90625 "/></g></g></g><g fill="#302f2f" fill-opacity="1"><g transform="translate(58.305761, 22.565916)"><g><path d="M 9.453125 -12.8125 L 12.203125 -12.8125 L 12.203125 0 L 9.453125 0 L 9.453125 -5.515625 L 3.578125 -5.515625 L 3.578125 0 L 0.84375 0 L 0.84375 -12.8125 L 3.578125 -12.8125 L 3.578125 -8.015625 L 9.453125 -8.015625 Z M 9.453125 -12.8125 "/></g></g></g><g fill="#302f2f" fill-opacity="1"><g transform="translate(71.974498, 21.973661)"><g><path d="M 3.25 -4.9375 C 2.769531 -4.9375 2.398438 -4.757812 2.140625 -4.40625 C 1.890625 -4.050781 1.765625 -3.554688 1.765625 -2.921875 C 1.765625 -1.609375 2.257812 -0.953125 3.25 -0.953125 C 3.65625 -0.953125 4.15625 -1.054688 4.75 -1.265625 L 4.75 -0.21875 C 4.257812 -0.0195312 3.71875 0.078125 3.125 0.078125 C 2.269531 0.078125 1.613281 -0.179688 1.15625 -0.703125 C 0.707031 -1.222656 0.484375 -1.96875 0.484375 -2.9375 C 0.484375 -3.550781 0.59375 -4.085938 0.8125 -4.546875 C 1.03125 -5.003906 1.347656 -5.351562 1.765625 -5.59375 C 2.191406 -5.84375 2.6875 -5.96875 3.25 -5.96875 C 3.8125 -5.96875 4.382812 -5.832031 4.96875 -5.5625 L 4.5625 -4.546875 C 4.34375 -4.648438 4.117188 -4.738281 3.890625 -4.8125 C 3.671875 -4.894531 3.457031 -4.9375 3.25 -4.9375 Z M 3.25 -4.9375 "/></g></g></g><g fill="#302f2f" fill-opacity="1"><g transform="translate(78.693358, 21.973661)"><g><path d="M 1.984375 -3.28125 L 2.390625 -3.28125 C 2.785156 -3.28125 3.078125 -3.34375 3.265625 -3.46875 C 3.453125 -3.601562 3.546875 -3.8125 3.546875 -4.09375 C 3.546875 -4.375 3.445312 -4.570312 3.25 -4.6875 C 3.0625 -4.800781 2.769531 -4.859375 2.375 -4.859375 L 1.984375 -4.859375 Z M 1.984375 -2.265625 L 1.984375 0 L 0.734375 0 L 0.734375 -5.890625 L 2.453125 -5.890625 C 3.253906 -5.890625 3.847656 -5.742188 4.234375 -5.453125 C 4.617188 -5.160156 4.8125 -4.71875 4.8125 -4.125 C 4.8125 -3.78125 4.710938 -3.472656 4.515625 -3.203125 C 4.328125 -2.929688 4.0625 -2.71875 3.71875 -2.5625 C 4.601562 -1.238281 5.179688 -0.382812 5.453125 0 L 4.0625 0 L 2.65625 -2.265625 Z M 1.984375 -2.265625 "/></g></g></g><g fill="#302f2f" fill-opacity="1"><g transform="translate(85.601567, 21.973661)"><g><path d="M 2.578125 -3.46875 L 3.796875 -5.890625 L 5.140625 -5.890625 L 3.1875 -2.296875 L 3.1875 0 L 1.953125 0 L 1.953125 -2.25 L 0 -5.890625 L 1.359375 -5.890625 Z M 2.578125 -3.46875 "/></g></g></g><g fill="#302f2f" fill-opacity="1"><g transform="translate(92.211648, 21.973661)"><g><path d="M 1.984375 -3.125 L 2.40625 -3.125 C 2.789062 -3.125 3.078125 -3.195312 3.265625 -3.34375 C 3.453125 -3.5 3.546875 -3.722656 3.546875 -4.015625 C 3.546875 -4.304688 3.460938 -4.519531 3.296875 -4.65625 C 3.140625 -4.789062 2.894531 -4.859375 2.5625 -4.859375 L 1.984375 -4.859375 Z M 4.8125 -4.046875 C 4.8125 -3.421875 4.613281 -2.9375 4.21875 -2.59375 C 3.820312 -2.257812 3.257812 -2.09375 2.53125 -2.09375 L 1.984375 -2.09375 L 1.984375 0 L 0.734375 0 L 0.734375 -5.890625 L 2.625 -5.890625 C 3.332031 -5.890625 3.875 -5.734375 4.25 -5.421875 C 4.625 -5.117188 4.8125 -4.660156 4.8125 -4.046875 Z M 4.8125 -4.046875 "/></g></g></g><g fill="#302f2f" fill-opacity="1"><g transform="translate(98.85396, 21.973661)"><g><path d="M 0.46875 -0.578125 C 0.46875 -0.804688 0.523438 -0.976562 0.640625 -1.09375 C 0.765625 -1.207031 0.945312 -1.265625 1.1875 -1.265625 C 1.40625 -1.265625 1.570312 -1.203125 1.6875 -1.078125 C 1.8125 -0.960938 1.875 -0.796875 1.875 -0.578125 C 1.875 -0.367188 1.8125 -0.203125 1.6875 -0.078125 C 1.570312 0.046875 1.40625 0.109375 1.1875 0.109375 C 0.957031 0.109375 0.78125 0.0507812 0.65625 -0.0625 C 0.53125 -0.1875 0.46875 -0.359375 0.46875 -0.578125 Z M 0.46875 -0.578125 "/></g></g></g><g clip-path="url(#5043d44177)"><path fill="#1c7bb8" d="M 13.484375 15.789062 L 18.273438 10.871094 L 18.273438 2.21875 L 4.855469 2.21875 L 4.855469 5.183594 C 8.351562 5.183594 11.832031 5.199219 15.316406 5.199219 L 15.316406 12.808594 L 7.8125 12.808594 L 7.8125 8.164062 L 4.855469 8.164062 L 4.855469 22.996094 L 5.824219 23.664062 L 18.273438 32.222656 L 18.273438 28.621094 L 7.925781 21.5 L 7.8125 21.425781 L 7.8125 15.789062 Z M 13.484375 15.789062 " fill-opacity="1" fill-rule="evenodd"/></g><g clip-path="url(#b0c58f0cf3)"><path fill="#1c7bb8" d="M 19.621094 17.625 L 19.621094 25.011719 L 22.585938 22.972656 L 22.585938 15.789062 L 30.085938 15.789062 L 30.085938 21.425781 L 19.621094 28.621094 L 19.621094 32.222656 L 33.042969 22.996094 L 33.042969 8.164062 L 30.085938 8.164062 L 30.085938 12.808594 L 24.3125 12.808594 Z M 19.621094 17.625 " fill-opacity="1" fill-rule="evenodd"/></g><g clip-path="url(#df7f35385c)"><path fill="#1c7bb8" d="M 22.585938 8.398438 L 22.585938 5.199219 C 26.066406 5.199219 29.546875 5.183594 33.042969 5.183594 L 33.042969 2.21875 L 19.621094 2.21875 L 19.621094 11.433594 L 18.273438 12.816406 L 18.273438 12.8125 L 15.617188 15.546875 L 15.316406 15.855469 L 15.316406 22.976562 L 18.273438 25.011719 L 18.273438 17.070312 L 19.621094 15.6875 L 22.585938 12.644531 Z M 22.585938 8.398438 " fill-opacity="1" fill-rule="evenodd"/></g></svg>